{"title":"Arrow S02E03 Broken Dolls ( Itunes-DL )","uid":9091337,"size":455139052,"categoryP":"video","categoryS":"tv_shows","magnet":"?xt=urn:btih:d142275dff6c52c4a3b3c73953c517a3c72a7315&amp;dn=Arrow+S02E03+Broken+Dolls+%28+Itunes-DL+%29&amp;tr=udp%3A%2F%2Ftracker.openbittorrent.com%3A80&amp;tr=udp%3A%2F%2Fopen.demonii.com%3A1337&amp;tr=udp%3A%2F%2Ftracker.coppersurfer.tk%3A6969&amp;tr=udp%3A%2F%2Fexodus.desync.com%3A6969","seeders":1,"leechers":0,"uploader":"fireflyhd","files":2,"time":1382603342,"description":"Lance learns a criminal named Barton Mathis (guest star Michael Eklund), whom he put \n\naway years ago, broke out of prison during the quake and is back to torturing and \n\nmurdering women.\n\n\n\nFormat                                   : MPEG-4\nFormat profile                           : Base Media\nCodec ID                                 : isom\nFile size                                : 434 MiB\nDuration                                 : 41mn 55s\nOverall bit rate                         : 1 447 Kbps\nWriting application                      : Lavf54.59.106\n\nVideo\nID                                       : 1\nFormat                                   : AVC\nFormat/Info                              : Advanced Video Codec\nFormat profile                           : &lt;a class=&quot;__cf_email__&quot; href=&quot;/cdn-cgi/l/email-protection&quot; data-cfemail=&quot;531b3a343b131f607d62&quot;&gt;[email&amp;#160;protected]&lt;/a&gt;&lt;script cf-hash='f9e31' type=&quot;text/javascript&quot;&gt;\n/* &lt;![CDATA[ */!function(){try{var t=&quot;currentScript&quot;in document?document.currentScript:function(){for(var t=document.getElementsByTagName(&quot;script&quot;),e=t.length;e--;)if(t[e].getAttribute(&quot;cf-hash&quot;))return t[e]}();if(t&amp;&amp;t.previousSibling){var e,r,n,i,c=t.previousSibling,a=c.getAttribute(&quot;data-cfemail&quot;);if(a){for(e=&quot;&quot;,r=parseInt(a.substr(0,2),16),n=2;a.length-n;n+=2)i=parseInt(a.substr(n,2),16)^r,e+=String.fromCharCode(i);e=document.createTextNode(e),c.parentNode.replaceChild(e,c)}}}catch(u){}}();/* ]]&gt; */&lt;/script&gt;\nFormat settings, CABAC                   : Yes\nFormat settings, ReFrames                : 5 frames\nCodec ID                                 : avc1\nCodec ID/Info                            : Advanced Video Coding\nDuration                                 : 41mn 55s\nBit rate                                 : 1 313 Kbps\nWidth                                    : 1 280 pixels\nHeight                                   : 720 pixels\nDisplay aspect ratio                     : 16:9\nFrame rate mode                          : Variable\nFrame rate                               : 23.976 fps\nMinimum frame rate                       : 2.336 fps\nMaximum frame rate                       : 125.000 fps\nColor space                              : YUV\nChroma subsampling                       : 4:2:0\nBit depth                                : 8 bits\nScan type                                : Progressive\nBits/(Pixel*Frame)                       : 0.059\nStream size                              : 394 MiB (91%)\n\nAudio\nID                                       : 2\nFormat                                   : AAC\nFormat/Info                              : Advanced Audio Codec\nFormat profile                           : LC\nCodec ID                                 : 40\nDuration                                 : 41mn 55s\nBit rate mode                            : Constant\nBit rate                                 : 128 Kbps\nChannel(s)                               : 2 channels\nChannel positions                        : Front: L R\nSampling rate                            : 48.0 KHz\nCompression mode                         : Lossy\nStream size                              : 38.4 MiB (9%)\n\n","torrent":{"xt":"urn:btih:d142275dff6c52c4a3b3c73953c517a3c72a7315","amp;dn":"Arrow+S02E03+Broken+Dolls+%28+Itunes-DL+%29","amp;tr":["udp%3A%2F%2Ftracker.openbittorrent.com%3A80","udp%3A%2F%2Fopen.demonii.com%3A1337","udp%3A%2F%2Ftracker.coppersurfer.tk%3A6969","udp%3A%2F%2Fexodus.desync.com%3A6969"],"infoHash":"d142275dff6c52c4a3b3c73953c517a3c72a7315","infoHashBuffer":{"type":"Buffer","data":[209,66,39,93,255,108,82,196,163,179,199,57,83,197,23,163,199,42,115,21]},"announce":[],"urlList":[]}}